PathFileType	4	(X/Y/Z)	/Users/niels/Desktop/University/Third Semester/Perception and Action/Exam/Gymnastics Motion Tracking/Code for Gym Tracking/Analyzed Data/Webcam_Backflip/id4_4_baseline_Sports2D/id4_4_baseline_Sports2D_px_person00.trc
DataRate	CameraRate	NumFrames	NumMarkers	Units	OrigDataRate	OrigDataStartFrame	OrigNumFrames
29.8125	29.8125	12	22	m	29.8125	0	160
Frame#	Time	Hip			RHip			RKnee			RAnkle			RBigToe			RSmallToe			RHeel			LHip			LKnee			LAnkle			LBigToe			LSmallToe			LHeel			Neck			Head			Nose			RShoulder			RElbow			RWrist			LShoulder			LElbow			LWrist		
		X1	Y1	Z1	X2	Y2	Z2	X3	Y3	Z3	X4	Y4	Z4	X5	Y5	Z5	X6	Y6	Z6	X7	Y7	Z7	X8	Y8	Z8	X9	Y9	Z9	X10	Y10	Z10	X11	Y11	Z11	X12	Y12	Z12	X13	Y13	Z13	X14	Y14	Z14	X15	Y15	Z15	X16	Y16	Z16	X17	Y17	Z17	X18	Y18	Z18	X19	Y19	Z19	X20	Y20	Z20	X21	Y21	Z21	X22	Y22	Z22
0	0.0	0.9592678269071813	-0.5751967986816077	0.0	0.959264076360455	-0.5732405295349385	0.0	0.9534017460041084	-0.6868708262129571	0.0	0.9377242993912392	-0.7867873381501607	0.0	0.9729947679653259	-0.8122558230325692	0.0	0.9690763817680036	-0.8142148214995344	0.0	0.931842330745413	-0.80442131227837	0.0	0.9612226793244263	-0.57127433853412	0.0	0.9553599357682722	-0.6849122871421736	0.0	0.9396836531051252	-0.7848348616685968	0.0	0.9769039290187939	-0.8122573670419763	0.0	0.9710309705184565	-0.8063743476634869	0.0	0.929884654680773	-0.796590058133544	0.0	0.9749609370750751	-0.42437016062367694	0.0	1.018065018254299	-0.36165411478180076	0.0	1.0082642053463455	-0.39694372438122966	0.0	0.9710451825329879	-0.426335503653432	0.0	1.0102036481298797	-0.35194744037945	0.0	1.0278157433114743	-0.2912835716030636	0.0	0.9690816127583092	-0.4263295554544893	0.0	1.0043153158515532	-0.3676239859424369	0.0	1.019981359480863	-0.30500702233936877	0.0
1	0.03354297693920335	0.9559775790044494	-0.572378538633097	0.0	0.9559962903023971	-0.5709118718466203	0.0	0.9541548289454947	-0.6840776356906306	0.0	0.9381836980360336	-0.7847788026391544	0.0	0.973029090847471	-0.8101804163680696	0.0	0.9693796342049488	-0.8115501101812164	0.0	0.9323305884753997	-0.8020691263722274	0.0	0.957867789745159	-0.5695445674790525	0.0	0.9550293932133112	-0.6831359271285354	0.0	0.9391491725135362	-0.7837031728222231	0.0	0.9750339805236062	-0.810430897448176	0.0	0.9697490299051446	-0.8049035144126243	0.0	0.9302390902366453	-0.7957967069450623	0.0	0.976870148631281	-0.42273233407577865	0.0	1.0226125334245604	-0.3618597112863866	0.0	1.0095856186404455	-0.3966104952867732	0.0	0.9730724811564134	-0.4245500874939981	0.0	1.0156926690775783	-0.35559023210992696	0.0	1.036719710145671	-0.2933464273402509	0.0	0.971621099238928	-0.4253489851475293	0.0	1.0094313491739004	-0.37019634135016577	0.0	1.0284747501389273	-0.3055192440701582	0.0
2	0.0670859538784067	0.9524088329359918	-0.5692572483438433	0.0	0.9525568977114541	-0.5684585542128264	0.0	0.9549232848112823	-0.6810128059185403	0.0	0.9385430172073375	-0.7826342567684834	0.0	0.9727650466530452	-0.807638127716657	0.0	0.9693571997460139	-0.8086704596418802	0.0	0.9324603234518795	-0.7996465278495771	0.0	0.954091113055014	-0.5674488199987223	0.0	0.954768954193146	-0.6809303108802798	0.0	0.9386571073838573	-0.7823906117021906	0.0	0.9731676761449952	-0.808331294509947	0.0	0.9686109403479822	-0.8031210849585405	0.0	0.9303096290407683	-0.7948654775866284	0.0	0.9787177996950112	-0.421022045033293	0.0	1.0267753411461231	-0.36186481543883237	0.0	1.011169736220393	-0.39592492423217207	0.0	0.9751449659587279	-0.42294066838068717	0.0	1.0216196024811839	-0.35910007126768423	0.0	1.0463103494958275	-0.2957604082255064	0.0	0.9738700463232133	-0.42416403013275616	0.0	1.0145220519201952	-0.37256480083010307	0.0	1.0375993600767999	-0.30647260297160495	0.0
3	0.10062893081761004	0.9484505236903609	-0.565842162700175	0.0	0.9488269454697911	-0.5658781816112194	0.0	0.9556689832774123	-0.6776726739455423	0.0	0.9387326082635179	-0.7803411271137344	0.0	0.9720918310729036	-0.8044986233798164	0.0	0.9688249834111377	-0.8055624011840892	0.0	0.9320226693653497	-0.7971258129382905	0.0	0.9496801930586605	-0.5648845215969787	0.0	0.9545638616550355	-0.6781850693496263	0.0	0.9382263471426011	-0.7807883984261073	0.0	0.971378080418967	-0.8058769117619743	0.0	0.9677182780219936	-0.8009461878181394	0.0	0.9299554246361205	-0.7936753505212476	0.0	0.9805190036387536	-0.41935501314523504	0.0	1.0304909929060804	-0.3617616940392807	0.0	1.0132918200973782	-0.3948853226367792	0.0	0.9772558296616287	-0.4216919675317575	0.0	1.028272278726152	-0.3626612253777984	0.0	1.057093770344203	-0.2991204681276436	0.0	0.9757361649542365	-0.4228634217158318	0.0	1.019731600760022	-0.37487072765470464	0.0	1.0477997726505504	-0.3086348303343404	0.0
4	0.1341719077568134	0.9442032656295902	-0.562430327641589	0.0	0.9447991039877788	-0.5632820205694675	0.0	0.9562489750326261	-0.6743340863568427	0.0	0.9387437100725415	-0.778047129521751	0.0	0.9712242408739856	-0.801110410533093	0.0	0.9678763096589273	-0.802519083053655	0.0	0.9310659660773765	-0.794603580581201	0.0	0.9446985575901365	-0.562028589418187	0.0	0.9543156981052527	-0.6751073732464564	0.0	0.9378970018422664	-0.778916644063979	0.0	0.9698680998531674	-0.8032353345245787	0.0	0.967114498663961	-0.7985786523914903	0.0	0.9292365824062652	-0.792172226223699	0.0	0.982377286719822	-0.41802693723764406	0.0	1.034018540075203	-0.3619780971282807	0.0	1.0161205203912913	-0.3939290085667983	0.0	0.9793444924505195	-0.42101179675630873	0.0	1.03567967920856	-0.3667503470406477	0.0	1.0692398386306075	-0.30416459247895583	0.0	0.977295443956366	-0.4218122295221502	0.0	1.0253207306935341	-0.3775831869892303	0.0	1.0591829531970056	-0.31289818638150874	0.0
5	0.16771488469601675	0.9398547861859103	-0.5594278138362434	0.0	0.9405491369956257	-0.560861125745786	0.0	0.9564416723689044	-0.6714173983386565	0.0	0.9386505740464977	-0.7760152097803363	0.0	0.9705963440582299	-0.7981449406843276	0.0	0.9668320179431881	-0.8000447842453882	0.0	0.9298903440362765	-0.792327566022724	0.0	0.9394197444073825	-0.5592338600969845	0.0	0.9539076930253345	-0.6720904257203884	0.0	0.9377533585631106	-0.7769374432626928	0.0	0.9689551398794302	-0.8007704539373289	0.0	0.9668235873729988	-0.7963842200477679	0.0	0.9283757120577211	-0.7904358742014834	0.0	0.9844608550983617	-0.4174096123505382	0.0	1.0377301400546108	-0.3631800234180903	0.0	1.0196652313702879	-0.3938218780626362	0.0	0.9813462179036151	-0.42112614525562636	0.0	1.043631514244706	-0.37200140405687476	0.0	1.0825825703262788	-0.31170271762419033	0.0	0.9786851828110128	-0.4214282524658251	0.0	1.0315779629073591	-0.38130610124167713	0.0	1.0716658634186567	-0.31996234105524146	0.0
6	0.20125786163522008	0.9355618135755365	-0.5572215593022313	0.0	0.9361718074987928	-0.5588624786648299	0.0	0.9560903661583416	-0.6693024195875406	0.0	0.9385807075579786	-0.7745146110026484	0.0	0.970500416039315	-0.7961934675932266	0.0	0.9659544044418412	-0.7985479387293054	0.0	0.9288955950363972	-0.7906094718591434	0.0	0.9342258335869921	-0.5569143346746653	0.0	0.9532817072413852	-0.6695884226591874	0.0	0.9378506505617155	-0.7751044934841785	0.0	0.9688978565356915	-0.7988434091380409	0.0	0.9668626168909106	-0.7946779127688082	0.0	0.9276781500252123	-0.7887058156756976	0.0	0.9869072847574901	-0.41781354026830764	0.0	1.0419095351365604	-0.36603677980161187	0.0	1.0237940847546818	-0.39535529361448757	0.0	0.9832493916053959	-0.42217997801097557	0.0	1.0517584216725557	-0.37898755390877914	0.0	1.0966745522424972	-0.322427775004536	0.0	0.9800339464194919	-0.42196082949239344	0.0	1.0387004824272925	-0.38656765753605865	0.0	1.0851211271595262	-0.33016120594261067	0.0
7	0.23480083857442344	0.9313925733627563	-0.5561362459703613	0.0	0.93174845035712	-0.5575736912734561	0.0	0.9552408850652545	-0.6681372300972319	0.0	0.9386304038172946	-0.7737212982907328	0.0	0.9708856876137446	-0.7954205113140418	0.0	0.9652738329552176	-0.7980803347164607	0.0	0.928385477651861	-0.7896897475091028	0.0	0.9294710739409954	-0.5554842759382599	0.0	0.9524761737929744	-0.6679165904179419	0.0	0.9381466754340544	-0.7736547854521741	0.0	0.9697153562601405	-0.797574741712812	0.0	0.9671873239845951	-0.793559175915992	0.0	0.9273986885540949	-0.787309402302134	0.0	0.9897288018311942	-0.4194302510347406	0.0	1.0466097897507285	-0.3709363720918007	0.0	1.0282759124563032	-0.39905142249282577	0.0	0.9851626002858701	-0.4242152672086853	0.0	1.0596590039161318	-0.3880777920154921	0.0	1.1109424200896496	-0.3367617026892183	0.0	0.9814495796242216	-0.4235050478868356	0.0	1.0466982282994215	-0.39379551445133937	0.0	1.0993466804223806	-0.3436402583774474	0.0
8	0.2683438155136268	0.9273199117139089	-0.5563780042606684	0.0	0.9273701049761114	-0.557284509337808	0.0	0.9541269895520127	-0.6678265100838784	0.0	0.9387985728273536	-0.7737046060609012	0.0	0.9715298795544337	-0.7955813819857604	0.0	0.9647339100634351	-0.7983934698014645	0.0	0.928452367927755	-0.7896394620644488	0.0	0.9253529955838524	-0.5552956842628066	0.0	0.9515922471546262	-0.6671327178594255	0.0	0.9385213937808545	-0.772745448279286	0.0	0.9711551826280799	-0.7968675241247476	0.0	0.967658466820779	-0.7929802643751598	0.0	0.9275853164515133	-0.7865287086619077	0.0	0.9928135572724429	-0.4223652706564869	0.0	1.0515620791192948	-0.3777654640380011	0.0	1.032865466796857	-0.4049997567510574	0.0	0.9872849259016675	-0.4272626019239717	0.0	1.0669703994747568	-0.39942269679675335	0.0	1.1247667287635448	-0.3548826189955102	0.0	0.9830575542809254	-0.4261622937702431	0.0	1.05532425825166	-0.4033451423898406	0.0	1.113896569726807	-0.3605701039369973	0.0
9	0.3018867924528301	0.9232949121745802	-0.5579264409065338	0.0	0.9231513111295153	-0.5581622427974363	0.0	0.9530302184497899	-0.6681990902740387	0.0	0.9389905945683754	-0.7744642046424257	0.0	0.9722626113146863	-0.796325709359042	0.0	0.9643358099355483	-0.7991929432513837	0.0	0.9289646504126877	-0.7903687927404118	0.0	0.9219057514986656	-0.556489153878616	0.0	0.9507314027482707	-0.6671434134495445	0.0	0.938829691439128	-0.7724997801540334	0.0	0.972785311289477	-0.7966565156161308	0.0	0.9681096493269842	-0.7929359386217796	0.0	0.9280520464422043	-0.786535563160022	0.0	0.9959722357718748	-0.4266860627652136	0.0	1.0562454721809518	-0.38592738652288844	0.0	1.0373431431307625	-0.4128460353551927	0.0	0.9897467747344251	-0.43140779548932595	0.0	1.0732599880160418	-0.41304640085231226	0.0	1.1373052328926037	-0.3768962071617915	0.0	0.9850192798016327	-0.4300981145600175	0.0	1.0639455744332933	-0.415512990113807	0.0	1.127833000893048	-0.38120935251842225	0.0
10	0.3354297693920335	0.9193532288584145	-0.5605083862254365	0.0	0.9191904252747498	-0.5601305171680165	0.0	0.9521468610667096	-0.6691220512791753	0.0	0.9390848454723422	-0.7759165068233561	0.0	0.9729909948190055	-0.7974249746058905	0.0	0.9640967469907458	-0.8002896134468765	0.0	0.9296311177713686	-0.7917089294905973	0.0	0.9190524689535327	-0.5588742238314794	0.0	0.9499698791762916	-0.6678454148007158	0.0	0.938956295658147	-0.7730207895352564	0.0	0.9741595993548661	-0.7969970998924197	0.0	0.968436476528234	-0.7934649219147563	0.0	0.9285086938941218	-0.7873860738223422	0.0	0.9989812545761522	-0.4323953231922726	0.0	1.0601937460756659	-0.39464405060713015	0.0	1.0414717680374395	-0.42196975921195873	0.0	0.9925020740883985	-0.43677289825009336	0.0	1.0779882611684535	-0.4289288170920487	0.0	1.1473984769929886	-0.4028604697395649	0.0	0.9874127855431484	-0.43542989988874276	0.0	1.0715237961059614	-0.43048725920431474	0.0	1.139697136106377	-0.4058253296982587	0.0
11	0.36897274633123683	0.915646457470889	-0.5637361223598116	0.0	0.9155704431672815	-0.5629108517704285	0.0	0.9515481099630528	-0.6705207187339246	0.0	0.9390191044595539	-0.7778884680394152	0.0	0.973656578002203	-0.7987883942017437	0.0	0.9640254641322146	-0.801606300078549	0.0	0.9301460585338881	-0.7934875232124411	0.0	0.9166285297160068	-0.5620279337503321	0.0	0.9493657258531842	-0.6691666677189733	0.0	0.9388811141984683	-0.7743220014157591	0.0	0.9749844094083616	-0.7979364238626718	0.0	0.9686018368287244	-0.7945281293116777	0.0	0.9287277842184521	-0.788998549093634	0.0	1.0016487828802392	-0.4393181486502985	0.0	1.0632781528154063	-0.4033011655055559	0.0	1.0450198866628386	-0.431700198157395	0.0	0.9954003554924129	-0.4433936366059929	0.0	1.0807004321913083	-0.4469462316564686	0.0	1.1538397815145258	-0.4325546605930775	0.0	0.9901115780376433	-0.44204667497908456	0.0	1.0769367326811203	-0.44816163375131235	0.0	1.147905533234117	-0.4344136225906103	0.0
